<mxfile host="app.diagrams.net" modified="2023-11-26T00:43:36.113Z" agent="Mozilla/5.0 (Windows NT 10.0; Win64; x64) AppleWebKit/537.36 (KHTML, like Gecko) Chrome/119.0.0.0 Safari/537.36 Edg/119.0.0.0" etag="ARQYZHn_GrmcBze5oXMq" version="22.1.4" type="github">
  <diagram name="Page-1" id="74e2e168-ea6b-b213-b513-2b3c1d86103e">
    <mxGraphModel dx="832" dy="481" grid="1" gridSize="10" guides="1" tooltips="1" connect="1" arrows="1" fold="1" page="1" pageScale="1" pageWidth="1100" pageHeight="850" background="none" math="0" shadow="0">
      <root>
        <mxCell id="0" />
        <mxCell id="1" parent="0" />
        <mxCell id="77e6c97f196da883-1" value="Pool" style="swimlane;html=1;childLayout=stackLayout;startSize=20;rounded=0;shadow=0;labelBackgroundColor=none;strokeWidth=1;fontFamily=Verdana;fontSize=8;align=center;" parent="1" vertex="1">
          <mxGeometry x="90" y="40" width="960" height="900" as="geometry" />
        </mxCell>
        <mxCell id="77e6c97f196da883-2" value="Lane 1" style="swimlane;html=1;startSize=20;" parent="77e6c97f196da883-1" vertex="1">
          <mxGeometry y="20" width="160" height="880" as="geometry" />
        </mxCell>
        <mxCell id="77e6c97f196da883-8" value="START" style="rounded=1;whiteSpace=wrap;html=1;shadow=0;labelBackgroundColor=none;strokeWidth=1;fontFamily=Verdana;fontSize=8;align=center;" parent="77e6c97f196da883-2" vertex="1">
          <mxGeometry x="20" y="65" width="100" height="65" as="geometry" />
        </mxCell>
        <mxCell id="77e6c97f196da883-3" value="Lane 2" style="swimlane;html=1;startSize=20;" parent="77e6c97f196da883-1" vertex="1">
          <mxGeometry x="160" y="20" width="160" height="880" as="geometry">
            <mxRectangle x="160" y="20" width="40" height="730" as="alternateBounds" />
          </mxGeometry>
        </mxCell>
        <mxCell id="8ovqB8YyMj0qVMRtjsTw-25" style="edgeStyle=orthogonalEdgeStyle;rounded=0;orthogonalLoop=1;jettySize=auto;html=1;entryX=0.5;entryY=0.15;entryDx=0;entryDy=0;entryPerimeter=0;" edge="1" parent="77e6c97f196da883-3" source="8ovqB8YyMj0qVMRtjsTw-2" target="8ovqB8YyMj0qVMRtjsTw-23">
          <mxGeometry relative="1" as="geometry" />
        </mxCell>
        <mxCell id="8ovqB8YyMj0qVMRtjsTw-2" value="DECLARE NUM1, NUM2, RESULT" style="shape=parallelogram;perimeter=parallelogramPerimeter;whiteSpace=wrap;html=1;fixedSize=1;" vertex="1" parent="77e6c97f196da883-3">
          <mxGeometry x="20" y="65" width="120" height="65" as="geometry" />
        </mxCell>
        <mxCell id="8ovqB8YyMj0qVMRtjsTw-23" value="INPUT VALUE NUM1, NUM2" style="shape=manualInput;whiteSpace=wrap;html=1;" vertex="1" parent="77e6c97f196da883-3">
          <mxGeometry x="20" y="180" width="120" height="100" as="geometry" />
        </mxCell>
        <mxCell id="77e6c97f196da883-4" value="Lane 3" style="swimlane;html=1;startSize=20;" parent="77e6c97f196da883-1" vertex="1">
          <mxGeometry x="320" y="20" width="230" height="880" as="geometry" />
        </mxCell>
        <mxCell id="8ovqB8YyMj0qVMRtjsTw-3" value="IS THE VALUE ACCEPTED" style="rhombus;whiteSpace=wrap;html=1;" vertex="1" parent="77e6c97f196da883-4">
          <mxGeometry x="40" y="175" width="140" height="110" as="geometry" />
        </mxCell>
        <mxCell id="8ovqB8YyMj0qVMRtjsTw-11" value="YES" style="text;html=1;strokeColor=none;fillColor=none;align=center;verticalAlign=middle;whiteSpace=wrap;rounded=0;" vertex="1" parent="77e6c97f196da883-4">
          <mxGeometry x="170" y="210" width="80" height="30" as="geometry" />
        </mxCell>
        <mxCell id="8ovqB8YyMj0qVMRtjsTw-10" value="NO" style="text;html=1;strokeColor=none;fillColor=none;align=center;verticalAlign=middle;whiteSpace=wrap;rounded=0;" vertex="1" parent="77e6c97f196da883-4">
          <mxGeometry x="-10" y="-50" width="60" height="730" as="geometry" />
        </mxCell>
        <mxCell id="77e6c97f196da883-7" value="Lane 4" style="swimlane;html=1;startSize=20;" parent="77e6c97f196da883-1" vertex="1">
          <mxGeometry x="550" y="20" width="190" height="880" as="geometry" />
        </mxCell>
        <mxCell id="8ovqB8YyMj0qVMRtjsTw-32" style="edgeStyle=orthogonalEdgeStyle;rounded=0;orthogonalLoop=1;jettySize=auto;html=1;" edge="1" parent="77e6c97f196da883-7" source="8ovqB8YyMj0qVMRtjsTw-7" target="8ovqB8YyMj0qVMRtjsTw-31">
          <mxGeometry relative="1" as="geometry" />
        </mxCell>
        <mxCell id="8ovqB8YyMj0qVMRtjsTw-7" value="CHECK IF VALUES IS NEGATIVE OR POSITIVE" style="whiteSpace=wrap;html=1;aspect=fixed;" vertex="1" parent="77e6c97f196da883-7">
          <mxGeometry x="30" y="170" width="120" height="120" as="geometry" />
        </mxCell>
        <mxCell id="8ovqB8YyMj0qVMRtjsTw-31" value="DISPLAY RESULT" style="rounded=1;whiteSpace=wrap;html=1;" vertex="1" parent="77e6c97f196da883-7">
          <mxGeometry x="20" y="360" width="140" height="95" as="geometry" />
        </mxCell>
        <mxCell id="8ovqB8YyMj0qVMRtjsTw-1" style="edgeStyle=orthogonalEdgeStyle;rounded=0;orthogonalLoop=1;jettySize=auto;html=1;" edge="1" parent="77e6c97f196da883-1" source="77e6c97f196da883-8" target="8ovqB8YyMj0qVMRtjsTw-2">
          <mxGeometry relative="1" as="geometry">
            <mxPoint x="180" y="115" as="targetPoint" />
          </mxGeometry>
        </mxCell>
        <mxCell id="8ovqB8YyMj0qVMRtjsTw-6" style="edgeStyle=orthogonalEdgeStyle;rounded=0;orthogonalLoop=1;jettySize=auto;html=1;exitX=1;exitY=0.5;exitDx=0;exitDy=0;entryX=0;entryY=0.5;entryDx=0;entryDy=0;" edge="1" parent="77e6c97f196da883-1" source="8ovqB8YyMj0qVMRtjsTw-3" target="8ovqB8YyMj0qVMRtjsTw-7">
          <mxGeometry relative="1" as="geometry">
            <mxPoint x="520" y="115" as="targetPoint" />
          </mxGeometry>
        </mxCell>
        <mxCell id="8ovqB8YyMj0qVMRtjsTw-24" style="edgeStyle=orthogonalEdgeStyle;rounded=0;orthogonalLoop=1;jettySize=auto;html=1;" edge="1" parent="77e6c97f196da883-1" source="8ovqB8YyMj0qVMRtjsTw-23" target="8ovqB8YyMj0qVMRtjsTw-3">
          <mxGeometry relative="1" as="geometry" />
        </mxCell>
        <mxCell id="8ovqB8YyMj0qVMRtjsTw-26" style="edgeStyle=orthogonalEdgeStyle;rounded=0;orthogonalLoop=1;jettySize=auto;html=1;entryX=0.5;entryY=1;entryDx=0;entryDy=0;exitX=0.5;exitY=1;exitDx=0;exitDy=0;" edge="1" parent="77e6c97f196da883-1" source="8ovqB8YyMj0qVMRtjsTw-3" target="8ovqB8YyMj0qVMRtjsTw-23">
          <mxGeometry relative="1" as="geometry" />
        </mxCell>
      </root>
    </mxGraphModel>
  </diagram>
</mxfile>
